<svg xmlns="http://www.w3.org/2000/svg" xmlns:xlink="http://www.w3.org/1999/xlink" width="129" height="130" viewBox="0 0 129 130">
  <defs>
    <linearGradient id="linear-gradient" x1="0.5" x2="0.5" y2="1" gradientUnits="objectBoundingBox">
      <stop offset="0" stop-color="#3decb4"/>
      <stop offset="1" stop-color="#10c5d2"/>
    </linearGradient>
  </defs>
  <g id="Group_14803" data-name="Group 14803" transform="translate(-1611 -834)">
    <rect id="Rectangle_342" data-name="Rectangle 342" width="129" height="130" rx="64.5" transform="translate(1611 834)" fill="url(#linear-gradient)"/>
    <g id="Group_14802" data-name="Group 14802" transform="translate(0 -3)">
      <g id="Group_60" data-name="Group 60" transform="translate(1655 866)">
        <path id="Path_70" data-name="Path 70" d="M94.674,75.756a3.092,3.092,0,0,1-2.191,3.095.771.771,0,0,0-.556.643,18.762,18.762,0,0,1-8.679,12.347,17.126,17.126,0,0,1-5.669,2.234,1.083,1.083,0,0,0-.938.752,3.207,3.207,0,0,1-5.92,0,1.108,1.108,0,0,0-.9-.752c-7.207-1.8-11.938-6.212-14.086-13.361a13.385,13.385,0,0,1-.338-1.34.6.6,0,0,0-.458-.512A3.138,3.138,0,0,1,52.9,76.977a3.229,3.229,0,0,1,2.148-4.294c.273-.076.349-.283.414-.512a32.684,32.684,0,0,1,1.254-3.825A18.438,18.438,0,0,1,69.26,57.83a.04.04,0,0,0,.033-.011,1.682,1.682,0,0,0,1.537-1.21A2.842,2.842,0,0,1,73.676,54.8a2.958,2.958,0,0,1,2.955,1.94,1.477,1.477,0,0,0,1.177,1.024,18.352,18.352,0,0,1,8.853,4.8,18.622,18.622,0,0,1,5.2,9.241,1.786,1.786,0,0,0,.142.5.826.826,0,0,0,.4.371A3.3,3.3,0,0,1,94.674,75.756ZM70.4,92.452a2.524,2.524,0,0,0,.425-.4,3.259,3.259,0,0,1,5.669-.022.583.583,0,0,0,.73.316c.643-.185,1.3-.349,1.93-.567a16.571,16.571,0,0,0,9.867-9.045,25.276,25.276,0,0,0,1.112-3.509.541.541,0,0,0-.305-.654,3.23,3.23,0,0,1-.033-5.536c.371-.24.349-.469.273-.8a16.706,16.706,0,0,0-4.863-8.489,16.5,16.5,0,0,0-8.079-4.272.651.651,0,0,0-.752.305,3.188,3.188,0,0,1-2.093,1.384,3.148,3.148,0,0,1-3.347-1.373.7.7,0,0,0-.774-.316c-.174.033-.338.065-.512.109A16.732,16.732,0,0,0,58.51,68.673a27.908,27.908,0,0,0-1.276,3.542.615.615,0,0,0,.283.839,3.293,3.293,0,0,1,1.45,3.531A3.157,3.157,0,0,1,57.333,78.7c-.174.1-.283.174-.229.436A16.809,16.809,0,0,0,68.017,91.743C68.791,91.994,69.565,92.19,70.4,92.452Zm3.282-35.843a1.438,1.438,0,0,0-1.428,1.319A1.464,1.464,0,0,0,73.687,59.4a1.4,1.4,0,1,0,0-2.79ZM92.9,75.789a1.49,1.49,0,0,0-1.4-1.439,1.439,1.439,0,1,0,.011,2.877A1.434,1.434,0,0,0,92.9,75.789Zm-35.641-.033a1.4,1.4,0,1,0-1.374,1.449A1.385,1.385,0,0,0,57.256,75.756Zm17.815,17.96A1.377,1.377,0,0,0,73.687,92.2a1.462,1.462,0,0,0-1.417,1.439,1.48,1.48,0,0,0,1.417,1.406A1.439,1.439,0,0,0,75.071,93.716Z" transform="translate(-52.674 -54.8)" fill="#fff"/>
        <path id="Path_76" data-name="Path 76" d="M134.2,154.123a5.123,5.123,0,0,1,1.169-3.283,8.988,8.988,0,0,1,3.084-2.1c1.158-.54,2.326-1.047,3.462-1.63a5.146,5.146,0,0,0,1.309-.969c.433-.43.389-.661.022-1.146a11.048,11.048,0,0,1-1.5-2.8,2.638,2.638,0,0,0-.509-.815,2.941,2.941,0,0,1-.692-2.8,15.311,15.311,0,0,0,.26-1.7c.076-.749.043-1.509.162-2.258a4.518,4.518,0,0,1,3.917-3.911,7.483,7.483,0,0,1,3.127.088,4.577,4.577,0,0,1,3.56,4.3c.076.9.1,1.807.151,2.71a2.448,2.448,0,0,0,.151.617,2.835,2.835,0,0,1-.519,2.787,8.59,8.59,0,0,0-.682,1.146c-.487.87-.941,1.763-1.45,2.622-.346.584-.368.683.087,1.212a5.437,5.437,0,0,0,1.915,1.256c1.179.551,2.37,1.069,3.538,1.652a11.055,11.055,0,0,1,1.623,1.047,4.886,4.886,0,0,1,1.872,3.426c.054.33-.054.463-.368.474-1.028.011-2.045.055-3.073.055q-10.062.017-20.125.011C134.514,154.123,134.384,154.123,134.2,154.123Zm21.65-1.873c.011-.044.032-.088.043-.132-.184-.176-.368-.353-.563-.518a14.053,14.053,0,0,0-3.289-1.785,15.806,15.806,0,0,1-3.4-1.752,3.566,3.566,0,0,1-1.417-2.06,1.673,1.673,0,0,1,.227-1.674,7.176,7.176,0,0,0,1.861-4.065c.043-.353.184-.485.519-.441s.454-.132.4-.452a.711.711,0,0,0-.108-.353,1.574,1.574,0,0,1-.3-1.168c-.011-.925.043-1.862-.043-2.787a2.664,2.664,0,0,0-1.818-2.4,5.305,5.305,0,0,0-2.932-.143,2.741,2.741,0,0,0-2.359,2.82c-.043.87-.022,1.741-.032,2.6a1.632,1.632,0,0,1-.281,1.058c-.335.452-.141.815.4.815.26,0,.335.1.368.341a7.554,7.554,0,0,0,1.883,4.186,1.584,1.584,0,0,1,.314.892,2.593,2.593,0,0,1-.692,1.972,6.166,6.166,0,0,1-1.342,1.168c-.941.54-1.937.991-2.932,1.454a14.512,14.512,0,0,0-3.289,1.8c-.184.154-.346.33-.519.5.022.044.032.088.054.132Q146.226,152.366,155.85,152.25Z" transform="translate(-125.219 -122.443)" fill="#fff"/>
      </g>
      <text id="General" transform="translate(1676 932)" fill="#fff" font-size="18" font-family="Hind" font-weight="500"><tspan x="-30" y="0">General</tspan></text>
    </g>
  </g>
</svg>
